# xmcd
# 
# Track frame offsets:
#     150
#     14730
#     24482
#     41087
#     55912
#     68295
#     78775
#     91685
#     103250
#     121690
# 
# Disc length: 1798
# 
# Revision: 0
# Processed by: cddbd v1.5.2PL0 Copyright (c) Steve Scherf et al.
# Submitted via: fre:ac v1.0.17
# 
DISCID=7007040a
DTITLE=Yesterdays Wine - A Christmas Gift
DYEAR=0
DGENRE=Country
TTITLE0=The Light in The Stable
TTITLE1=Away in a Manger
TTITLE2=Silent Night
TTITLE3=What Child is This
TTITLE4=O Holy Night
TTITLE5=A Christmas Gift
TTITLE6=O Little Town of Bethlehem
TTITLE7=O Come all Ye Faithful
TTITLE8=Where is The Child
TTITLE9=Go Tell it on the Mountain
EXTD=
EXTT0=
EXTT1=
EXTT2=
EXTT3=
EXTT4=
EXTT5=
EXTT6=
EXTT7=
EXTT8=
EXTT9=
PLAYORDER=
